<svg xmlns="http://www.w3.org/2000/svg" viewBox="0 0 960 360" role="img" aria-labelledby="title desc">
  <title id="title">bigfoot.capital logo concept</title>
  <desc id="desc">A refined Bigfoot footprint mark with a mountain trail and growth curve, paired with a lowercase wordmark.</desc>
  <rect width="960" height="360" rx="36" fill="#F7F3EA"/>
  <g transform="translate(92 42)">
    <ellipse cx="165" cy="151" rx="78" ry="116" transform="rotate(13 165 151)" fill="#09213A"/>
    <path d="M120 158 C145 126 164 101 188 71 C202 105 219 134 246 167 C214 157 190 155 164 176 C145 191 128 194 104 184 C109 176 114 167 120 158Z" fill="#1F6F4A"/>
    <path d="M109 201 C141 184 177 187 212 162 C226 152 239 140 252 126" fill="none" stroke="#F3B54A" stroke-width="13" stroke-linecap="round"/>
    <path d="M112 201 C148 206 182 207 224 225" fill="none" stroke="#F7F3EA" stroke-width="10" stroke-linecap="round" opacity=".95"/>
    <circle cx="96" cy="47" r="25" fill="#09213A"/>
    <circle cx="148" cy="22" r="27" fill="#09213A"/>
    <circle cx="205" cy="26" r="25" fill="#09213A"/>
    <circle cx="256" cy="61" r="22" fill="#09213A"/>
    <circle cx="283" cy="113" r="18" fill="#F3B54A"/>
    <path d="M96 47 L148 22 L205 26 L256 61 L283 113" fill="none" stroke="#F3B54A" stroke-width="7" stroke-linecap="round" stroke-linejoin="round" opacity=".9"/>
  </g>
  <g transform="translate(400 128)">
    <text x="0" y="0" font-family="Inter, ui-sans-serif, system-ui, -apple-system, BlinkMacSystemFont, 'Segoe UI', sans-serif" font-size="58" font-weight="650" letter-spacing="-1.6" fill="#09213A">bigfoot<tspan fill="#D69A2D">.</tspan>capital</text>
    <text x="3" y="50" font-family="Inter, ui-sans-serif, system-ui, -apple-system, BlinkMacSystemFont, 'Segoe UI', sans-serif" font-size="18" font-weight="520" letter-spacing="3.8" fill="#557086">INVESTMENT ADVENTURES</text>
    <line x1="3" y1="78" x2="388" y2="78" stroke="#D8CCB7" stroke-width="2"/>
    <text x="3" y="116" font-family="Inter, ui-sans-serif, system-ui, -apple-system, BlinkMacSystemFont, 'Segoe UI', sans-serif" font-size="18" font-weight="430" fill="#52677A">Professional capital allocation with an explorer’s edge.</text>
  </g>
</svg>